<svg width="32" height="32" viewBox="0 0 32 32" fill="none" xmlns="http://www.w3.org/2000/svg">
<circle cx="16" cy="16" r="15" fill="#00A0AB"/>
<path d="M17.25 8C17.25 7.30964 16.6904 6.75 16 6.75C15.3096 6.75 14.75 7.30964 14.75 8L17.25 8ZM14.75 24C14.75 24.6904 15.3096 25.25 16 25.25C16.6904 25.25 17.25 24.6904 17.25 24L14.75 24ZM14.75 8L14.75 24L17.25 24L17.25 8L14.75 8Z" fill="white"/>
<path d="M8 14.75C7.30964 14.75 6.75 15.3096 6.75 16C6.75 16.6904 7.30964 17.25 8 17.25V14.75ZM24 17.25C24.6904 17.25 25.25 16.6904 25.25 16C25.25 15.3096 24.6904 14.75 24 14.75V17.25ZM8 17.25H24V14.75L8 14.75V17.25Z" fill="white"/>
</svg>
