<svg width="24" height="24" viewBox="0 0 24 24" fill="none" xmlns="http://www.w3.org/2000/svg">
<path d="M5 3.5C4.72386 3.5 4.5 3.72386 4.5 4V20C4.5 20.2761 4.72386 20.5 5 20.5H14C14.1326 20.5 14.2598 20.4473 14.3536 20.3536L19.3536 15.3536C19.4473 15.2598 19.5 15.1326 19.5 15V4C19.5 3.72386 19.2761 3.5 19 3.5H5Z" stroke="#2C2C2C" stroke-linecap="round" stroke-linejoin="round"/>
<path d="M19.3536 15.3536C19.4966 15.2106 19.5393 14.9955 19.4619 14.8087C19.3845 14.6218 19.2022 14.5 19 14.5H14C13.7239 14.5 13.5 14.7239 13.5 15V20C13.5 20.2022 13.6218 20.3845 13.8087 20.4619C13.9955 20.5393 14.2106 20.4966 14.3536 20.3536L19.3536 15.3536Z" stroke="#2C2C2C" stroke-linecap="round" stroke-linejoin="round"/>
</svg>
